<svg id="Layer_1" data-name="Layer 1" xmlns="http://www.w3.org/2000/svg" viewBox="0 0 377.16 215.68"><defs><style>.cls-1{fill:#fff;}</style></defs><path class="cls-1" d="M122.33,366.83q8.25,5,16.16,5,9.94,0,9.94-5.34,0-3.79-8.2-6.34Q130,357,126.16,353.08t-3.83-10.61a14.76,14.76,0,0,1,6.56-12.75q6.57-4.61,17.21-4.61a47.71,47.71,0,0,1,14.57,2.24V340a27.24,27.24,0,0,0-14.12-3.79,12.05,12.05,0,0,0-6.17,1.37,4.09,4.09,0,0,0-2.34,3.62q0,3.79,7,6.13a73.61,73.61,0,0,1,11.22,4.55,14.52,14.52,0,0,1,5.72,5.38,15,15,0,0,1,2,7.74,15.2,15.2,0,0,1-6.81,13.25q-6.81,4.71-18.2,4.71a46.82,46.82,0,0,1-16.56-2.84Z" transform="translate(-102.75 -296.47)"/><path class="cls-1" d="M224.45,381.65h-16v-8.44h-.25Q202.07,383,191.38,383q-19.2,0-19.2-23.25V326.46h16.06v31.78q0,12.38,9.65,12.38a9.6,9.6,0,0,0,7.71-3.39q2.88-3.41,2.88-9.19V326.46h16Z" transform="translate(-102.75 -296.47)"/><path class="cls-1" d="M268.46,329.8a35,35,0,0,1,10-3.39,53.3,53.3,0,0,1,10.66-1.3q23.09,0,23.08,23.2v33.34H296.9v-8h-.2Q291.09,383,280.24,383q-7.8,0-12.5-4.46T263,366.38q0-15.87,18.84-18.47l15.12-2q0-9.63-10-9.63a32.14,32.14,0,0,0-18.55,6Zm18.15,26.85q-8.7,1.14-8.7,7.88a6.37,6.37,0,0,0,2.11,5,8.23,8.23,0,0,0,5.69,1.9,10.48,10.48,0,0,0,8.11-3.5,12.39,12.39,0,0,0,3.18-8.68V355.3Z" transform="translate(-102.75 -296.47)"/><path class="cls-1" d="M376.29,326.46l-20.63,55.19H337.51l-19.65-55.19h17.21l10.09,34.73a43.29,43.29,0,0,1,1.84,9.53h.25a52.64,52.64,0,0,1,1.94-9.23l10.3-35Z" transform="translate(-102.75 -296.47)"/><path class="cls-1" d="M118.82,480.11v32H102.75V431.56h16.07V440h.2q6.32-9.78,17.85-9.78,10.5,0,16.41,7.36t5.92,20q0,13.81-6.87,22.15a22.17,22.17,0,0,1-18,8.34q-10.1,0-15.31-8Zm-.25-17.76a14.37,14.37,0,0,0,3.18,9.63,10.34,10.34,0,0,0,8.26,3.74,10.86,10.86,0,0,0,9.37-4.69q3.36-4.69,3.36-13.27,0-15.18-11.79-15.17a11,11,0,0,0-8.92,4.19,16.35,16.35,0,0,0-3.46,10.78Z" transform="translate(-102.75 -296.47)"/><path class="cls-1" d="M168.87,459.4q0-13.62,8.13-21.4t21.86-7.79q13.27,0,21.08,7.66t7.81,20.59q0,13.56-8,21.6t-21.69,8q-13.42,0-21.3-7.71T168.87,459.4Zm16.26-.2q0,16.53,13.43,16.52,12.88,0,12.88-17,0-16.15-13-16.16-6.32,0-9.82,4.34T185.13,459.2Z" transform="translate(-102.75 -296.47)"/><path class="cls-1" d="M289.39,487.1H269.91l-18.29-27.3h-.2v27.3H235.36V296.47h16.06V457.41h.2l17.14-25.5H287.9l-20.38,26Z" transform="translate(-102.75 -296.47)"/><path class="cls-1" d="M349,487.1H333V455.66q0-12.72-9.25-12.72a9.59,9.59,0,0,0-7.64,3.54,13.71,13.71,0,0,0-3,9.18V487.1H297V405.41h16.06v34.78h.2q6.32-9.63,17-9.63,18.69,0,18.7,22.66Z" transform="translate(-102.75 -296.47)"/><path class="cls-1" d="M393.82,445.78a14,14,0,0,0-7.11-1.7,10.33,10.33,0,0,0-8.67,4.2q-3.21,4.19-3.21,11.52v26.55H358.77V431.16h16.06v10.38h.2q4-11.32,14.47-11.33a11.26,11.26,0,0,1,4.32.65Z" transform="translate(-102.75 -296.47)"/><path class="cls-1" d="M452.54,462.82h-36.2q.84,12.82,15.41,12.83a29,29,0,0,0,16.06-4.49V483q-7.5,4.25-19.69,4.24-13.12,0-20.41-7.43t-7.29-20.71q0-13.23,7.76-21.48a25.6,25.6,0,0,1,19.49-8.26q11.68,0,18.28,7.11T452.54,456Zm-15-10.08q0-12.37-10-12.37a9.77,9.77,0,0,0-7.31,3.39,16,16,0,0,0-4,9Z" transform="translate(-102.75 -296.47)"/><path class="cls-1" d="M463.9,487.1V296.47h16V487.1Z" transform="translate(-102.75 -296.47)"/></svg>